%TF.GenerationSoftware,KiCad,Pcbnew,6.0.11-2627ca5db0~126~ubuntu22.04.1*%
%TF.CreationDate,2023-02-28T16:13:49+01:00*%
%TF.ProjectId,AstaGroeting-A_Spark_of_Passion,41737461-4772-46f6-9574-696e672d415f,rev?*%
%TF.SameCoordinates,Original*%
%TF.FileFunction,Soldermask,Bot*%
%TF.FilePolarity,Negative*%
%FSLAX46Y46*%
G04 Gerber Fmt 4.6, Leading zero omitted, Abs format (unit mm)*
G04 Created by KiCad (PCBNEW 6.0.11-2627ca5db0~126~ubuntu22.04.1) date 2023-02-28 16:13:49*
%MOMM*%
%LPD*%
G01*
G04 APERTURE LIST*
G04 Aperture macros list*
%AMRotRect*
0 Rectangle, with rotation*
0 The origin of the aperture is its center*
0 $1 length*
0 $2 width*
0 $3 Rotation angle, in degrees counterclockwise*
0 Add horizontal line*
21,1,$1,$2,0,0,$3*%
G04 Aperture macros list end*
%ADD10C,1.600000*%
%ADD11O,1.600000X1.600000*%
%ADD12O,1.905000X2.000000*%
%ADD13R,1.905000X2.000000*%
%ADD14O,3.500000X3.500000*%
%ADD15R,1.600000X1.600000*%
%ADD16RotRect,2.600000X2.600000X36.000000*%
%ADD17C,2.600000*%
%ADD18C,6.350000*%
%ADD19C,0.800000*%
%ADD20C,6.400000*%
%ADD21R,1.400000X1.400000*%
%ADD22C,1.400000*%
%ADD23R,2.400000X2.400000*%
%ADD24C,2.400000*%
%ADD25R,1.800000X1.800000*%
%ADD26C,1.800000*%
%ADD27O,1.800000X1.800000*%
%ADD28C,8.600000*%
%ADD29C,0.900000*%
%ADD30R,3.960000X1.980000*%
%ADD31O,3.960000X1.980000*%
%ADD32R,1.200000X1.200000*%
%ADD33C,1.200000*%
%ADD34C,1.440000*%
G04 APERTURE END LIST*
D10*
%TO.C,R10*%
X145387500Y-118482500D03*
D11*
X155547500Y-118482500D03*
%TD*%
D10*
%TO.C,R9*%
X152317500Y-104052500D03*
D11*
X152317500Y-114212500D03*
%TD*%
D10*
%TO.C,R8*%
X155717500Y-114212500D03*
D11*
X155717500Y-104052500D03*
%TD*%
D10*
%TO.C,R7*%
X151850000Y-95910000D03*
D11*
X151850000Y-85750000D03*
%TD*%
D10*
%TO.C,R6*%
X155350000Y-95910000D03*
D11*
X155350000Y-85750000D03*
%TD*%
D12*
%TO.C,Q2*%
X154090000Y-82710000D03*
X151550000Y-82710000D03*
D13*
X149010000Y-82710000D03*
D14*
X151550000Y-66050000D03*
%TD*%
D15*
%TO.C,D7*%
X198550000Y-69840000D03*
D11*
X198550000Y-62220000D03*
%TD*%
D15*
%TO.C,U1*%
X134150000Y-83330000D03*
D11*
X134150000Y-85870000D03*
X134150000Y-88410000D03*
X134150000Y-90950000D03*
X141770000Y-90950000D03*
X141770000Y-88410000D03*
X141770000Y-85870000D03*
X141770000Y-83330000D03*
%TD*%
D16*
%TO.C,Q1*%
X172050001Y-91130001D03*
D17*
X178468616Y-99964467D03*
D18*
X164493505Y-103356687D03*
X188925818Y-85605573D03*
%TD*%
D19*
%TO.C,H11*%
X202500000Y-64530000D03*
X207300000Y-64530000D03*
D20*
X204900000Y-64530000D03*
D19*
X206597056Y-66227056D03*
X203202944Y-62832944D03*
X204900000Y-66930000D03*
X203202944Y-66227056D03*
X206597056Y-62832944D03*
X204900000Y-62130000D03*
%TD*%
D21*
%TO.C,K1*%
X146582500Y-112362500D03*
D22*
X146582500Y-107282500D03*
X146582500Y-102202500D03*
X146582500Y-97122500D03*
%TD*%
D19*
%TO.C,H6*%
X134002944Y-66227056D03*
X135700000Y-62130000D03*
X133300000Y-64530000D03*
X134002944Y-62832944D03*
X137397056Y-62832944D03*
D20*
X135700000Y-64530000D03*
D19*
X137397056Y-66227056D03*
X138100000Y-64530000D03*
X135700000Y-66930000D03*
%TD*%
D23*
%TO.C,C1*%
X204000000Y-90164785D03*
D24*
X204000000Y-95164785D03*
%TD*%
D25*
%TO.C,D1*%
X122815000Y-101980000D03*
D26*
X125355000Y-101980000D03*
%TD*%
D25*
%TO.C,D5*%
X133970000Y-79280000D03*
D27*
X144130000Y-79280000D03*
%TD*%
D25*
%TO.C,D3*%
X122600000Y-109750000D03*
D27*
X122600000Y-119910000D03*
%TD*%
D28*
%TO.C,H7*%
X188900000Y-85380000D03*
D29*
X186619581Y-83099581D03*
X191180419Y-87660419D03*
X188900000Y-82155000D03*
X192125000Y-85380000D03*
X186619581Y-87660419D03*
X191180419Y-83099581D03*
X185675000Y-85380000D03*
X188900000Y-88605000D03*
%TD*%
D30*
%TO.C,J1*%
X204000000Y-74315000D03*
D31*
X204000000Y-79315000D03*
%TD*%
D19*
%TO.C,H9*%
X206597056Y-125977056D03*
D20*
X204900000Y-124280000D03*
D19*
X202500000Y-124280000D03*
X206597056Y-122582944D03*
X207300000Y-124280000D03*
X203202944Y-122582944D03*
X204900000Y-126680000D03*
X204900000Y-121880000D03*
X203202944Y-125977056D03*
%TD*%
%TO.C,H3*%
X108700000Y-62130000D03*
X107002944Y-62832944D03*
X106300000Y-64530000D03*
X108700000Y-66930000D03*
X107002944Y-66227056D03*
X110397056Y-66227056D03*
D20*
X108700000Y-64530000D03*
D19*
X110397056Y-62832944D03*
X111100000Y-64530000D03*
%TD*%
D32*
%TO.C,C3*%
X139500000Y-119102600D03*
D33*
X139500000Y-117102600D03*
%TD*%
D10*
%TO.C,R3*%
X117000000Y-105780000D03*
D11*
X117000000Y-95620000D03*
%TD*%
D10*
%TO.C,R1*%
X116950000Y-93110000D03*
D11*
X116950000Y-82950000D03*
%TD*%
D25*
%TO.C,D4*%
X131820000Y-101030000D03*
D27*
X141980000Y-101030000D03*
%TD*%
D30*
%TO.C,J2*%
X204000000Y-105415000D03*
D31*
X204000000Y-110415000D03*
%TD*%
D10*
%TO.C,R2*%
X116850000Y-70400000D03*
D11*
X116850000Y-80560000D03*
%TD*%
D25*
%TO.C,D2*%
X117300000Y-109750000D03*
D27*
X117300000Y-119910000D03*
%TD*%
D25*
%TO.C,D6*%
X122820000Y-88030000D03*
D26*
X125360000Y-88030000D03*
%TD*%
D10*
%TO.C,R4*%
X122950000Y-82710000D03*
D11*
X122950000Y-72550000D03*
%TD*%
D32*
%TO.C,C2*%
X142000000Y-74752600D03*
D33*
X142000000Y-72752600D03*
%TD*%
D19*
%TO.C,H10*%
X107002944Y-122582944D03*
X110397056Y-125977056D03*
X106300000Y-124280000D03*
X110397056Y-122582944D03*
X111100000Y-124280000D03*
X107002944Y-125977056D03*
X108700000Y-121880000D03*
D20*
X108700000Y-124280000D03*
D19*
X108700000Y-126680000D03*
%TD*%
D15*
%TO.C,U2*%
X133900000Y-105230000D03*
D11*
X133900000Y-107770000D03*
X133900000Y-110310000D03*
X133900000Y-112850000D03*
X141520000Y-112850000D03*
X141520000Y-110310000D03*
X141520000Y-107770000D03*
X141520000Y-105230000D03*
%TD*%
D10*
%TO.C,R5*%
X145750000Y-82250000D03*
D11*
X145750000Y-92410000D03*
%TD*%
D29*
%TO.C,H8*%
X166756100Y-105630501D03*
D28*
X164475681Y-103350082D03*
D29*
X162195262Y-105630501D03*
X164475681Y-106575082D03*
X162195262Y-101069663D03*
X166756100Y-101069663D03*
X161250681Y-103350082D03*
X164475681Y-100125082D03*
X167700681Y-103350082D03*
%TD*%
D34*
%TO.C,RV4*%
X110650000Y-98030000D03*
X110650000Y-100570000D03*
X110650000Y-103110000D03*
%TD*%
%TO.C,RV3*%
X110650000Y-72980000D03*
X110650000Y-75520000D03*
X110650000Y-78060000D03*
%TD*%
%TO.C,RV2*%
X110650000Y-110630000D03*
X110650000Y-113170000D03*
X110650000Y-115710000D03*
%TD*%
%TO.C,RV1*%
X110650000Y-85580000D03*
X110650000Y-88120000D03*
X110650000Y-90660000D03*
%TD*%
M02*
