M48
; DRILL file {KiCad 6.0.11-2627ca5db0~126~ubuntu22.04.1} date Di 28 Feb 2023 16:13:56 CET
; FORMAT={-:-/ absolute / inch / decimal}
; #@! TF.CreationDate,2023-02-28T16:13:56+01:00
; #@! TF.GenerationSoftware,Kicad,Pcbnew,6.0.11-2627ca5db0~126~ubuntu22.04.1
; #@! TF.FileFunction,Plated,1,2,PTH
FMAT,2
INCH
; #@! TA.AperFunction,Plated,PTH,ViaDrill
T1C0.0157
; #@! TA.AperFunction,Plated,PTH,ComponentDrill
T2C0.0197
; #@! TA.AperFunction,Plated,PTH,ComponentDrill
T3C0.0236
; #@! TA.AperFunction,Plated,PTH,ComponentDrill
T4C0.0276
; #@! TA.AperFunction,Plated,PTH,ComponentDrill
T5C0.0315
; #@! TA.AperFunction,Plated,PTH,ComponentDrill
T6C0.0354
; #@! TA.AperFunction,Plated,PTH,ComponentDrill
T7C0.0433
; #@! TA.AperFunction,Plated,PTH,ComponentDrill
T8C0.0472
; #@! TA.AperFunction,Plated,PTH,ComponentDrill
T9C0.0512
; #@! TA.AperFunction,Plated,PTH,ComponentDrill
T10C0.0520
; #@! TA.AperFunction,Plated,PTH,ComponentDrill
T11C0.1260
; #@! TA.AperFunction,Plated,PTH,ComponentDrill
T12C0.1575
; #@! TA.AperFunction,Plated,PTH,ComponentDrill
T13C0.1693
%
G90
G05
T1
X5.4075Y-4.1154
X5.5207Y-3.0809
X5.8865Y-3.9737
T2
X4.185Y-2.5406
X4.185Y-4.8929
X4.2127Y-2.4737
X4.2127Y-2.6074
X4.2127Y-4.8261
X4.2127Y-4.9597
X4.2795Y-2.4461
X4.2795Y-2.635
X4.2795Y-4.7984
X4.2795Y-4.9874
X4.3463Y-2.4737
X4.3463Y-2.6074
X4.3463Y-4.8261
X4.3463Y-4.9597
X4.374Y-2.5406
X4.374Y-4.8929
X5.248Y-2.5406
X5.2757Y-2.4737
X5.2757Y-2.6074
X5.3425Y-2.4461
X5.3425Y-2.635
X5.4093Y-2.4737
X5.4093Y-2.6074
X5.437Y-2.5406
X7.9724Y-2.5406
X7.9724Y-4.8929
X8.0001Y-2.4737
X8.0001Y-2.6074
X8.0001Y-4.8261
X8.0001Y-4.9597
X8.0669Y-2.4461
X8.0669Y-2.635
X8.0669Y-4.7984
X8.0669Y-4.9874
X8.1337Y-2.4737
X8.1337Y-2.6074
X8.1337Y-4.8261
X8.1337Y-4.9597
X8.1614Y-2.5406
X8.1614Y-4.8929
T3
X5.4921Y-4.6103
X5.4921Y-4.6891
X5.5906Y-2.8643
X5.5906Y-2.943
X6.3485Y-4.0689
X6.3856Y-3.9791
X6.3856Y-4.1587
X6.4754Y-3.9419
X6.4754Y-4.1959
X6.5652Y-3.9791
X6.5652Y-4.1587
X6.6024Y-4.0689
X7.31Y-3.3614
X7.3472Y-3.2716
X7.3472Y-3.4512
X7.437Y-3.2344
X7.437Y-3.4884
X7.5268Y-3.2716
X7.5268Y-3.4512
X7.564Y-3.3614
T4
X5.771Y-3.8237
X5.771Y-4.0237
X5.771Y-4.2237
X5.771Y-4.4237
T5
X4.3563Y-2.8732
X4.3563Y-2.9732
X4.3563Y-3.0732
X4.3563Y-3.3693
X4.3563Y-3.4693
X4.3563Y-3.5693
X4.3563Y-3.8594
X4.3563Y-3.9594
X4.3563Y-4.0594
X4.3563Y-4.3555
X4.3563Y-4.4555
X4.3563Y-4.5555
X4.6004Y-2.7717
X4.6004Y-3.1717
X4.6043Y-3.2657
X4.6043Y-3.6657
X4.6063Y-3.7646
X4.6063Y-4.1646
X4.8406Y-2.8563
X4.8406Y-3.2563
X5.2717Y-4.1429
X5.2717Y-4.2429
X5.2717Y-4.3429
X5.2717Y-4.4429
X5.2815Y-3.2807
X5.2815Y-3.3807
X5.2815Y-3.4807
X5.2815Y-3.5807
X5.5717Y-4.1429
X5.5717Y-4.2429
X5.5717Y-4.3429
X5.5717Y-4.4429
X5.5815Y-3.2807
X5.5815Y-3.3807
X5.5815Y-3.4807
X5.5815Y-3.5807
X5.7239Y-4.6647
X5.7382Y-3.2382
X5.7382Y-3.6382
X5.9783Y-3.376
X5.9783Y-3.776
X5.9968Y-4.0966
X5.9968Y-4.4966
X6.1161Y-3.376
X6.1161Y-3.776
X6.1239Y-4.6647
X6.1306Y-4.0966
X6.1306Y-4.4966
X7.8169Y-2.4496
X7.8169Y-2.7496
T6
X4.6181Y-4.3209
X4.6181Y-4.7209
X4.8268Y-4.3209
X4.8268Y-4.7209
X4.8352Y-4.015
X4.8354Y-3.4657
X4.9352Y-4.015
X4.9354Y-3.4657
X5.1898Y-3.9776
X5.2744Y-3.1213
X5.5898Y-3.9776
X5.6744Y-3.1213
T7
X5.8665Y-3.2563
X5.9665Y-3.2563
X6.0665Y-3.2563
T8
X8.0315Y-3.5498
X8.0315Y-3.7466
T9
X6.7736Y-3.5878
X7.0263Y-3.9356
T10
X8.0315Y-2.9258
X8.0315Y-3.1226
X8.0315Y-4.1502
X8.0315Y-4.347
T11
X4.2795Y-2.5406
X4.2795Y-4.8929
X5.3425Y-2.5406
X8.0669Y-2.5406
X8.0669Y-4.8929
T12
X6.4761Y-4.0692
X7.438Y-3.3703
T13
X6.4754Y-4.0689
X7.437Y-3.3614
T0
M30
