%TF.GenerationSoftware,KiCad,Pcbnew,6.0.11-2627ca5db0~126~ubuntu22.04.1*%
%TF.CreationDate,2023-02-28T16:13:49+01:00*%
%TF.ProjectId,AstaGroeting-A_Spark_of_Passion,41737461-4772-46f6-9574-696e672d415f,rev?*%
%TF.SameCoordinates,Original*%
%TF.FileFunction,Copper,L2,Bot*%
%TF.FilePolarity,Positive*%
%FSLAX46Y46*%
G04 Gerber Fmt 4.6, Leading zero omitted, Abs format (unit mm)*
G04 Created by KiCad (PCBNEW 6.0.11-2627ca5db0~126~ubuntu22.04.1) date 2023-02-28 16:13:49*
%MOMM*%
%LPD*%
G01*
G04 APERTURE LIST*
G04 Aperture macros list*
%AMRotRect*
0 Rectangle, with rotation*
0 The origin of the aperture is its center*
0 $1 length*
0 $2 width*
0 $3 Rotation angle, in degrees counterclockwise*
0 Add horizontal line*
21,1,$1,$2,0,0,$3*%
G04 Aperture macros list end*
%TA.AperFunction,ComponentPad*%
%ADD10C,1.600000*%
%TD*%
%TA.AperFunction,ComponentPad*%
%ADD11O,1.600000X1.600000*%
%TD*%
%TA.AperFunction,ComponentPad*%
%ADD12O,1.905000X2.000000*%
%TD*%
%TA.AperFunction,ComponentPad*%
%ADD13R,1.905000X2.000000*%
%TD*%
%TA.AperFunction,ComponentPad*%
%ADD14R,1.600000X1.600000*%
%TD*%
%TA.AperFunction,ComponentPad*%
%ADD15RotRect,2.600000X2.600000X36.000000*%
%TD*%
%TA.AperFunction,ComponentPad*%
%ADD16C,2.600000*%
%TD*%
%TA.AperFunction,ComponentPad*%
%ADD17C,6.350000*%
%TD*%
%TA.AperFunction,ComponentPad*%
%ADD18C,0.800000*%
%TD*%
%TA.AperFunction,ComponentPad*%
%ADD19C,6.400000*%
%TD*%
%TA.AperFunction,ComponentPad*%
%ADD20R,1.400000X1.400000*%
%TD*%
%TA.AperFunction,ComponentPad*%
%ADD21C,1.400000*%
%TD*%
%TA.AperFunction,ComponentPad*%
%ADD22R,2.400000X2.400000*%
%TD*%
%TA.AperFunction,ComponentPad*%
%ADD23C,2.400000*%
%TD*%
%TA.AperFunction,ComponentPad*%
%ADD24R,1.800000X1.800000*%
%TD*%
%TA.AperFunction,ComponentPad*%
%ADD25C,1.800000*%
%TD*%
%TA.AperFunction,ComponentPad*%
%ADD26O,1.800000X1.800000*%
%TD*%
%TA.AperFunction,ComponentPad*%
%ADD27C,8.600000*%
%TD*%
%TA.AperFunction,ComponentPad*%
%ADD28C,0.900000*%
%TD*%
%TA.AperFunction,ComponentPad*%
%ADD29R,3.960000X1.980000*%
%TD*%
%TA.AperFunction,ComponentPad*%
%ADD30O,3.960000X1.980000*%
%TD*%
%TA.AperFunction,ComponentPad*%
%ADD31R,1.200000X1.200000*%
%TD*%
%TA.AperFunction,ComponentPad*%
%ADD32C,1.200000*%
%TD*%
%TA.AperFunction,ComponentPad*%
%ADD33C,1.440000*%
%TD*%
%TA.AperFunction,ViaPad*%
%ADD34C,0.800000*%
%TD*%
%TA.AperFunction,Conductor*%
%ADD35C,0.500000*%
%TD*%
%TA.AperFunction,Conductor*%
%ADD36C,1.500000*%
%TD*%
%TA.AperFunction,Conductor*%
%ADD37C,2.500000*%
%TD*%
%TA.AperFunction,Conductor*%
%ADD38C,0.250000*%
%TD*%
%TA.AperFunction,Conductor*%
%ADD39C,0.750000*%
%TD*%
%TA.AperFunction,Conductor*%
%ADD40C,2.000000*%
%TD*%
%TA.AperFunction,Conductor*%
%ADD41C,0.200000*%
%TD*%
G04 APERTURE END LIST*
D10*
%TO.P,R10,1*%
%TO.N,GND*%
X145387500Y-118482500D03*
D11*
%TO.P,R10,2*%
%TO.N,Net-(K1-Pad5)*%
X155547500Y-118482500D03*
%TD*%
D10*
%TO.P,R9,1*%
%TO.N,Net-(K1-Pad5)*%
X152317500Y-104052500D03*
D11*
%TO.P,R9,2*%
%TO.N,Net-(R8-Pad1)*%
X152317500Y-114212500D03*
%TD*%
D10*
%TO.P,R8,1*%
%TO.N,Net-(R8-Pad1)*%
X155717500Y-114212500D03*
D11*
%TO.P,R8,2*%
%TO.N,Net-(D6-Pad2)*%
X155717500Y-104052500D03*
%TD*%
D10*
%TO.P,R7,1*%
%TO.N,Net-(D7-Pad2)*%
X151850000Y-95910000D03*
D11*
%TO.P,R7,2*%
%TO.N,GND*%
X151850000Y-85750000D03*
%TD*%
D10*
%TO.P,R6,1*%
%TO.N,GND*%
X155350000Y-95910000D03*
D11*
%TO.P,R6,2*%
%TO.N,/PowerIn-*%
X155350000Y-85750000D03*
%TD*%
D12*
%TO.P,Q2,3,S*%
%TO.N,+12V*%
X154090000Y-82710000D03*
%TO.P,Q2,2,D*%
%TO.N,/PowerIn+*%
X151550000Y-82710000D03*
D13*
%TO.P,Q2,1,G*%
%TO.N,Net-(D7-Pad2)*%
X149010000Y-82710000D03*
%TD*%
D14*
%TO.P,D7,1,K*%
%TO.N,+12V*%
X198550000Y-69840000D03*
D11*
%TO.P,D7,2,A*%
%TO.N,Net-(D7-Pad2)*%
X198550000Y-62220000D03*
%TD*%
D14*
%TO.P,U1,1,GND*%
%TO.N,GND*%
X134150000Y-83330000D03*
D11*
%TO.P,U1,2,TR*%
%TO.N,Net-(C2-Pad1)*%
X134150000Y-85870000D03*
%TO.P,U1,3,Q*%
%TO.N,Net-(D6-Pad2)*%
X134150000Y-88410000D03*
%TO.P,U1,4,R*%
%TO.N,Net-(D1-Pad1)*%
X134150000Y-90950000D03*
%TO.P,U1,5,CV*%
%TO.N,unconnected-(U1-Pad5)*%
X141770000Y-90950000D03*
%TO.P,U1,6,THR*%
%TO.N,Net-(C2-Pad1)*%
X141770000Y-88410000D03*
%TO.P,U1,7,DIS*%
%TO.N,Net-(D3-Pad1)*%
X141770000Y-85870000D03*
%TO.P,U1,8,VCC*%
%TO.N,+12V*%
X141770000Y-83330000D03*
%TD*%
D15*
%TO.P,Q1,1,B*%
%TO.N,Net-(Q1-Pad1)*%
X172050001Y-91130001D03*
D16*
%TO.P,Q1,2,E*%
%TO.N,Net-(Q1-Pad2)*%
X178468616Y-99964467D03*
D17*
%TO.P,Q1,3,C*%
%TO.N,+12V*%
X164493505Y-103356687D03*
X188925818Y-85605573D03*
%TD*%
D18*
%TO.P,H11,1*%
%TO.N,N/C*%
X202500000Y-64530000D03*
X207300000Y-64530000D03*
D19*
X204900000Y-64530000D03*
D18*
X206597056Y-66227056D03*
X203202944Y-62832944D03*
X204900000Y-66930000D03*
X203202944Y-66227056D03*
X206597056Y-62832944D03*
X204900000Y-62130000D03*
%TD*%
D20*
%TO.P,K1,1*%
%TO.N,Net-(K1-Pad1)*%
X146582500Y-112362500D03*
D21*
%TO.P,K1,3*%
%TO.N,GND*%
X146582500Y-107282500D03*
%TO.P,K1,5*%
%TO.N,Net-(K1-Pad5)*%
X146582500Y-102202500D03*
%TO.P,K1,7*%
%TO.N,+12V*%
X146582500Y-97122500D03*
%TD*%
D18*
%TO.P,H6,1*%
%TO.N,N/C*%
X134002944Y-66227056D03*
X135700000Y-62130000D03*
X133300000Y-64530000D03*
X134002944Y-62832944D03*
X137397056Y-62832944D03*
D19*
X135700000Y-64530000D03*
D18*
X137397056Y-66227056D03*
X138100000Y-64530000D03*
X135700000Y-66930000D03*
%TD*%
D22*
%TO.P,C1,1*%
%TO.N,+12V*%
X204000000Y-90164785D03*
D23*
%TO.P,C1,2*%
%TO.N,GND*%
X204000000Y-95164785D03*
%TD*%
D24*
%TO.P,D1,1,K*%
%TO.N,Net-(D1-Pad1)*%
X122815000Y-101980000D03*
D25*
%TO.P,D1,2,A*%
%TO.N,Net-(D1-Pad2)*%
X125355000Y-101980000D03*
%TD*%
D24*
%TO.P,D5,1,K*%
%TO.N,Net-(C2-Pad1)*%
X133970000Y-79280000D03*
D26*
%TO.P,D5,2,A*%
%TO.N,Net-(D3-Pad1)*%
X144130000Y-79280000D03*
%TD*%
D24*
%TO.P,D3,1,K*%
%TO.N,Net-(D3-Pad1)*%
X122600000Y-109750000D03*
D26*
%TO.P,D3,2,A*%
%TO.N,Net-(D3-Pad2)*%
X122600000Y-119910000D03*
%TD*%
D27*
%TO.P,H7,1,1*%
%TO.N,+12V*%
X188900000Y-85380000D03*
D28*
X186619581Y-83099581D03*
X191180419Y-87660419D03*
X188900000Y-82155000D03*
X192125000Y-85380000D03*
X186619581Y-87660419D03*
X191180419Y-83099581D03*
X185675000Y-85380000D03*
X188900000Y-88605000D03*
%TD*%
D29*
%TO.P,J1,1,Pin_1*%
%TO.N,/PowerIn-*%
X204000000Y-74315000D03*
D30*
%TO.P,J1,2,Pin_2*%
%TO.N,/PowerIn+*%
X204000000Y-79315000D03*
%TD*%
D18*
%TO.P,H9,1*%
%TO.N,N/C*%
X206597056Y-125977056D03*
D19*
X204900000Y-124280000D03*
D18*
X202500000Y-124280000D03*
X206597056Y-122582944D03*
X207300000Y-124280000D03*
X203202944Y-122582944D03*
X204900000Y-126680000D03*
X204900000Y-121880000D03*
X203202944Y-125977056D03*
%TD*%
%TO.P,H3,1*%
%TO.N,N/C*%
X108700000Y-62130000D03*
X107002944Y-62832944D03*
X106300000Y-64530000D03*
X108700000Y-66930000D03*
X107002944Y-66227056D03*
X110397056Y-66227056D03*
D19*
X108700000Y-64530000D03*
D18*
X110397056Y-62832944D03*
X111100000Y-64530000D03*
%TD*%
D31*
%TO.P,C3,1*%
%TO.N,Net-(C3-Pad1)*%
X139500000Y-119102600D03*
D32*
%TO.P,C3,2*%
%TO.N,GND*%
X139500000Y-117102600D03*
%TD*%
D10*
%TO.P,R3,1*%
%TO.N,+12V*%
X117000000Y-105780000D03*
D11*
%TO.P,R3,2*%
%TO.N,Net-(R3-Pad2)*%
X117000000Y-95620000D03*
%TD*%
D10*
%TO.P,R1,1*%
%TO.N,Net-(D1-Pad1)*%
X116950000Y-93110000D03*
D11*
%TO.P,R1,2*%
%TO.N,GND*%
X116950000Y-82950000D03*
%TD*%
D24*
%TO.P,D4,1,K*%
%TO.N,Net-(C3-Pad1)*%
X131820000Y-101030000D03*
D26*
%TO.P,D4,2,A*%
%TO.N,Net-(D2-Pad1)*%
X141980000Y-101030000D03*
%TD*%
D29*
%TO.P,J2,1,Pin_1*%
%TO.N,Net-(Q1-Pad2)*%
X204000000Y-105415000D03*
D30*
%TO.P,J2,2,Pin_2*%
%TO.N,GND*%
X204000000Y-110415000D03*
%TD*%
D10*
%TO.P,R2,1*%
%TO.N,+12V*%
X116850000Y-70400000D03*
D11*
%TO.P,R2,2*%
%TO.N,Net-(R2-Pad2)*%
X116850000Y-80560000D03*
%TD*%
D24*
%TO.P,D2,1,K*%
%TO.N,Net-(D2-Pad1)*%
X117300000Y-109750000D03*
D26*
%TO.P,D2,2,A*%
%TO.N,Net-(D2-Pad2)*%
X117300000Y-119910000D03*
%TD*%
D24*
%TO.P,D6,1,K*%
%TO.N,Net-(D6-Pad1)*%
X122820000Y-88030000D03*
D25*
%TO.P,D6,2,A*%
%TO.N,Net-(D6-Pad2)*%
X125360000Y-88030000D03*
%TD*%
D10*
%TO.P,R4,1*%
%TO.N,GND*%
X122950000Y-82710000D03*
D11*
%TO.P,R4,2*%
%TO.N,Net-(D6-Pad1)*%
X122950000Y-72550000D03*
%TD*%
D31*
%TO.P,C2,1*%
%TO.N,Net-(C2-Pad1)*%
X142000000Y-74752600D03*
D32*
%TO.P,C2,2*%
%TO.N,GND*%
X142000000Y-72752600D03*
%TD*%
D18*
%TO.P,H10,1*%
%TO.N,N/C*%
X107002944Y-122582944D03*
X110397056Y-125977056D03*
X106300000Y-124280000D03*
X110397056Y-122582944D03*
X111100000Y-124280000D03*
X107002944Y-125977056D03*
X108700000Y-121880000D03*
D19*
X108700000Y-124280000D03*
D18*
X108700000Y-126680000D03*
%TD*%
D14*
%TO.P,U2,1,GND*%
%TO.N,GND*%
X133900000Y-105230000D03*
D11*
%TO.P,U2,2,TR*%
%TO.N,Net-(C3-Pad1)*%
X133900000Y-107770000D03*
%TO.P,U2,3,Q*%
%TO.N,Net-(D1-Pad2)*%
X133900000Y-110310000D03*
%TO.P,U2,4,R*%
%TO.N,+12V*%
X133900000Y-112850000D03*
%TO.P,U2,5,CV*%
%TO.N,unconnected-(U2-Pad5)*%
X141520000Y-112850000D03*
%TO.P,U2,6,THR*%
%TO.N,Net-(C3-Pad1)*%
X141520000Y-110310000D03*
%TO.P,U2,7,DIS*%
%TO.N,Net-(D2-Pad1)*%
X141520000Y-107770000D03*
%TO.P,U2,8,VCC*%
%TO.N,+12V*%
X141520000Y-105230000D03*
%TD*%
D10*
%TO.P,R5,1*%
%TO.N,Net-(Q1-Pad1)*%
X145750000Y-82250000D03*
D11*
%TO.P,R5,2*%
%TO.N,Net-(K1-Pad1)*%
X145750000Y-92410000D03*
%TD*%
D28*
%TO.P,H8,1,1*%
%TO.N,+12V*%
X166756100Y-105630501D03*
D27*
X164475681Y-103350082D03*
D28*
X162195262Y-105630501D03*
X164475681Y-106575082D03*
X162195262Y-101069663D03*
X166756100Y-101069663D03*
X161250681Y-103350082D03*
X164475681Y-100125082D03*
X167700681Y-103350082D03*
%TD*%
D33*
%TO.P,RV4,1,1*%
%TO.N,Net-(R3-Pad2)*%
X110650000Y-98030000D03*
%TO.P,RV4,2,2*%
%TO.N,Net-(D2-Pad1)*%
X110650000Y-100570000D03*
%TO.P,RV4,3,3*%
%TO.N,unconnected-(RV4-Pad3)*%
X110650000Y-103110000D03*
%TD*%
%TO.P,RV3,1,1*%
%TO.N,Net-(R2-Pad2)*%
X110650000Y-72980000D03*
%TO.P,RV3,2,2*%
%TO.N,Net-(D3-Pad1)*%
X110650000Y-75520000D03*
%TO.P,RV3,3,3*%
%TO.N,unconnected-(RV3-Pad3)*%
X110650000Y-78060000D03*
%TD*%
%TO.P,RV2,1,1*%
%TO.N,unconnected-(RV2-Pad1)*%
X110650000Y-110630000D03*
%TO.P,RV2,2,2*%
%TO.N,Net-(D2-Pad2)*%
X110650000Y-113170000D03*
%TO.P,RV2,3,3*%
%TO.N,Net-(C3-Pad1)*%
X110650000Y-115710000D03*
%TD*%
%TO.P,RV1,1,1*%
%TO.N,unconnected-(RV1-Pad1)*%
X110650000Y-85580000D03*
%TO.P,RV1,2,2*%
%TO.N,Net-(D3-Pad2)*%
X110650000Y-88120000D03*
%TO.P,RV1,3,3*%
%TO.N,Net-(C2-Pad1)*%
X110650000Y-90660000D03*
%TD*%
D34*
%TO.N,Net-(D6-Pad2)*%
X149517500Y-100932500D03*
%TO.N,+12V*%
X137350000Y-104530000D03*
X140225000Y-78255000D03*
%TD*%
D35*
%TO.N,Net-(D6-Pad2)*%
X146938846Y-100932500D02*
X149517500Y-100932500D01*
X141886346Y-95880000D02*
X146938846Y-100932500D01*
X141600000Y-95880000D02*
X141886346Y-95880000D01*
%TO.N,Net-(D2-Pad2)*%
X110650000Y-113170000D02*
X114740000Y-113170000D01*
X114740000Y-113170000D02*
X117300000Y-115730000D01*
X117300000Y-115730000D02*
X117300000Y-119910000D01*
%TO.N,Net-(D2-Pad1)*%
X110650000Y-100570000D02*
X109480000Y-101740000D01*
X109480000Y-101740000D02*
X109480000Y-103594630D01*
X109480000Y-103594630D02*
X115635370Y-109750000D01*
X115635370Y-109750000D02*
X117300000Y-109750000D01*
%TO.N,Net-(R3-Pad2)*%
X117000000Y-95620000D02*
X113060000Y-95620000D01*
X113060000Y-95620000D02*
X110650000Y-98030000D01*
D36*
%TO.N,+12V*%
X133900000Y-112850000D02*
X137350000Y-109400000D01*
X137350000Y-109400000D02*
X137350000Y-104530000D01*
D35*
%TO.N,Net-(D2-Pad1)*%
X141520000Y-107770000D02*
X137150000Y-112140000D01*
X137150000Y-112140000D02*
X137150000Y-113430000D01*
X137150000Y-113430000D02*
X135450000Y-115130000D01*
X135450000Y-115130000D02*
X120250000Y-115130000D01*
X120250000Y-115130000D02*
X117300000Y-112180000D01*
X117300000Y-112180000D02*
X117300000Y-109750000D01*
X141980000Y-101030000D02*
X143350000Y-101030000D01*
X143350000Y-101030000D02*
X144250000Y-101930000D01*
X144250000Y-101930000D02*
X144250000Y-107380000D01*
X144250000Y-107380000D02*
X143860000Y-107770000D01*
X143860000Y-107770000D02*
X141520000Y-107770000D01*
%TO.N,Net-(K1-Pad1)*%
X146582500Y-112362500D02*
X150550000Y-108395000D01*
X145750000Y-93730000D02*
X145750000Y-92410000D01*
X150550000Y-108395000D02*
X150550000Y-98530000D01*
X150550000Y-98530000D02*
X145750000Y-93730000D01*
%TO.N,Net-(C3-Pad1)*%
X141520000Y-110310000D02*
X143350000Y-112140000D01*
X143350000Y-112140000D02*
X143350000Y-118330000D01*
X142577400Y-119102600D02*
X139500000Y-119102600D01*
X143350000Y-118330000D02*
X142577400Y-119102600D01*
D36*
%TO.N,+12V*%
X133900000Y-112850000D02*
X126830000Y-105780000D01*
X126830000Y-105780000D02*
X117000000Y-105780000D01*
D35*
%TO.N,Net-(D1-Pad2)*%
X133900000Y-110310000D02*
X125570000Y-101980000D01*
X125570000Y-101980000D02*
X125355000Y-101980000D01*
%TO.N,Net-(D3-Pad1)*%
X110650000Y-75520000D02*
X114150050Y-79020050D01*
X114150050Y-79020050D02*
X114150050Y-81917817D01*
X114150050Y-81917817D02*
X116812233Y-84580000D01*
X116812233Y-84580000D02*
X140480000Y-84580000D01*
X140480000Y-84580000D02*
X141770000Y-85870000D01*
%TO.N,Net-(R2-Pad2)*%
X116850000Y-80560000D02*
X116850000Y-77230000D01*
X116850000Y-77230000D02*
X112600000Y-72980000D01*
X112600000Y-72980000D02*
X110650000Y-72980000D01*
D36*
%TO.N,+12V*%
X116850000Y-70400000D02*
X132370000Y-70400000D01*
X132370000Y-70400000D02*
X140225000Y-78255000D01*
D35*
%TO.N,Net-(D6-Pad2)*%
X141600000Y-95860000D02*
X134150000Y-88410000D01*
X141600000Y-95880000D02*
X141600000Y-95860000D01*
%TO.N,Net-(Q1-Pad1)*%
X145750000Y-82250000D02*
X145750000Y-86230000D01*
X145750000Y-86230000D02*
X150650001Y-91130001D01*
X150650001Y-91130001D02*
X172050001Y-91130001D01*
D37*
%TO.N,+12V*%
X184074427Y-85605573D02*
X175450000Y-94230000D01*
X188925818Y-85605573D02*
X184074427Y-85605573D01*
X175450000Y-94230000D02*
X173595763Y-94230000D01*
X173595763Y-94230000D02*
X164475681Y-103350082D01*
D38*
%TO.N,Net-(Q1-Pad2)*%
X204000000Y-105415000D02*
X204000000Y-104730000D01*
D37*
X204000000Y-104730000D02*
X199234467Y-99964467D01*
X199234467Y-99964467D02*
X178468616Y-99964467D01*
%TO.N,+12V*%
X204000000Y-90164785D02*
X193485030Y-90164785D01*
X193485030Y-90164785D02*
X188925818Y-85605573D01*
X198550000Y-69840000D02*
X206260000Y-69840000D01*
X206260000Y-69840000D02*
X211300000Y-74880000D01*
X211300000Y-74880000D02*
X211300000Y-83680000D01*
X211300000Y-83680000D02*
X204815215Y-90164785D01*
D36*
X204815215Y-90164785D02*
X204000000Y-90164785D01*
D39*
%TO.N,Net-(D7-Pad2)*%
X198550000Y-62220000D02*
X159710000Y-62220000D01*
X159710000Y-62220000D02*
X146950000Y-74980000D01*
X146950000Y-74980000D02*
X146950000Y-80650000D01*
X146950000Y-80650000D02*
X149010000Y-82710000D01*
D40*
%TO.N,/PowerIn+*%
X165050000Y-75330000D02*
X169350000Y-79630000D01*
X155100000Y-75330000D02*
X165050000Y-75330000D01*
X151550000Y-82710000D02*
X151550000Y-78880000D01*
X151550000Y-78880000D02*
X155100000Y-75330000D01*
D41*
X169350000Y-79630000D02*
X169665000Y-79315000D01*
D40*
X169665000Y-79315000D02*
X204000000Y-79315000D01*
D41*
X204000000Y-79315000D02*
X204000000Y-79330000D01*
%TD*%
M02*
